<svg version="1.1" id="Capa_1" xmlns="http://www.w3.org/2000/svg" x="0" y="0" viewBox="0 0 60 60" xml:space="preserve"><path d="M11 7c0-2.206-1.794-4-4-4S3 4.794 3 7s1.794 4 4 4 4-1.794 4-4zM7 9c-1.103 0-2-.897-2-2s.897-2 2-2 2 .897 2 2-.897 2-2 2zm9 2c2.206 0 4-1.794 4-4s-1.794-4-4-4-4 1.794-4 4 1.794 4 4 4zm0-6c1.103 0 2 .897 2 2s-.897 2-2 2-2-.897-2-2 .897-2 2-2zm9 6c2.206 0 4-1.794 4-4s-1.794-4-4-4-4 1.794-4 4 1.794 4 4 4zm0-6c1.103 0 2 .897 2 2s-.897 2-2 2-2-.897-2-2 .897-2 2-2z"/><path d="M0 0v60h60V0H0zm2 2h56v10H2V2zm0 56V14h5v44H2zm56 0H9V14h49v44z"/><path d="M5 17H4a1 1 0 100 2h1a1 1 0 100-2zm0 4H4a1 1 0 100 2h1a1 1 0 100-2zm0 4H4a1 1 0 100 2h1a1 1 0 100-2zm0 4H4a1 1 0 100 2h1a1 1 0 100-2zm0 4H4a1 1 0 100 2h1a1 1 0 100-2zm0 4H4a1 1 0 100 2h1a1 1 0 100-2zm0 4H4a1 1 0 100 2h1a1 1 0 100-2zm0 4H4a1 1 0 100 2h1a1 1 0 100-2zm0 4H4a1 1 0 100 2h1a1 1 0 100-2zm0 4H4a1 1 0 100 2h1a1 1 0 100-2zm8-34h13a1 1 0 100-2H13a1 1 0 100 2zm17 0h10a1 1 0 100-2H30a1 1 0 100 2zm14 0h2a1 1 0 100-2h-2a1 1 0 100 2zm-9 3a1 1 0 001 1h15a1 1 0 100-2H36a1 1 0 00-1 1zm-3-1H18a1 1 0 100 2h14a1 1 0 100-2zm-19 2h1a1 1 0 100-2h-1a1 1 0 100 2zm0 4h9a1 1 0 100-2h-9a1 1 0 100 2zm13 0h2a1 1 0 100-2h-2a1 1 0 100 2zm20-2H32a1 1 0 100 2h14a1 1 0 100-2zm-33 6h13a1 1 0 100-2H13a1 1 0 100 2zm28-1a1 1 0 00-1-1H30a1 1 0 100 2h10a1 1 0 001-1zm-5 5h8a1 1 0 100-2h-8a1 1 0 100 2zm-19-1a1 1 0 001 1h14a1 1 0 100-2H18a1 1 0 00-1 1zm-4 1h1a1 1 0 100-2h-1a1 1 0 100 2zm0 4h9a1 1 0 100-2h-9a1 1 0 100 2zm13 0h2a1 1 0 100-2h-2a1 1 0 100 2zm5-1a1 1 0 001 1h15a1 1 0 100-2H32a1 1 0 00-1 1zm-18 5h13a1 1 0 100-2H13a1 1 0 100 2zm27-2H30a1 1 0 100 2h10a1 1 0 100-2zm11 0h-7a1 1 0 100 2h7a1 1 0 100-2zm-11 4h-4a1 1 0 100 2h4a1 1 0 100-2zm-23 1a1 1 0 001 1h14a1 1 0 100-2H18a1 1 0 00-1 1zm-4 1h1a1 1 0 100-2h-1a1 1 0 100 2zm9 2h-9a1 1 0 100 2h9a1 1 0 100-2zm6 0h-2a1 1 0 100 2h2a1 1 0 100-2zm11 0h-7a1 1 0 100 2h7a1 1 0 100-2zm5 0h-1a1 1 0 100 2h1a1 1 0 100-2z"/></svg>